<?xml version="1.0" encoding="UTF-8"?>
<svg version="1.1" xmlns="http://www.w3.org/2000/svg" width="796" height="796">
<path d="M0 0 C262.68 0 525.36 0 796 0 C796 262.68 796 525.36 796 796 C533.32 796 270.64 796 0 796 C0 533.32 0 270.64 0 0 Z " fill="#FEFEFE" transform="translate(0,0)"/>
<path d="M0 0 C2.2717815 0.85283161 4.56090905 1.6484363 6.85205078 2.44775391 C26.51585076 9.45799192 44.45130163 18.96561292 60.97314453 31.74072266 C61.53904297 32.17819824 62.10494141 32.61567383 62.68798828 33.06640625 C100.24090749 62.57066322 124.48106946 103.49638689 135.16064453 149.74072266 C135.3154126 150.39065186 135.47018066 151.04058105 135.62963867 151.71020508 C139.54314943 169.40931817 139.28074017 187.32515946 139.27857101 205.3423394 C139.28023753 209.34335062 139.29333775 213.34432861 139.30476379 217.34532166 C139.32747426 226.06919119 139.33551954 234.7930362 139.34059024 243.5169313 C139.34386415 248.98125994 139.35039675 254.44558167 139.35759163 259.90990639 C139.37714078 275.08822366 139.39355437 290.26653456 139.39646816 305.44486523 C139.39665573 306.41346824 139.3968433 307.38207126 139.39703656 308.38002588 C139.39740277 310.34297041 139.39776647 312.30591494 139.39812767 314.26885947 C139.39831048 315.24304844 139.39849329 316.21723741 139.39868164 317.22094727 C139.39895246 318.68404916 139.39895246 318.68404916 139.39922876 320.17670868 C139.40276436 335.95314655 139.42975588 351.72944743 139.46717953 367.50583788 C139.5054401 383.76740663 139.52462694 400.02890772 139.52492768 416.2905224 C139.52550833 425.39487828 139.53374424 434.49907074 139.56292534 443.60338402 C139.58767839 451.36091279 139.59456368 459.11821859 139.57967781 466.87577637 C139.57260463 470.81891815 139.57293904 474.76162188 139.59608841 478.70471191 C139.73189278 503.31019914 138.43432911 528.44303133 129.71386719 551.75146484 C128.86499313 554.03117012 128.06755743 556.32674048 127.26611328 558.62353516 C120.25207926 578.28516694 110.74798498 596.21922802 97.97314453 612.74072266 C97.53566895 613.30662109 97.09819336 613.87251953 96.64746094 614.45556641 C81.03416379 634.32811859 61.99636927 651.30906073 39.97314453 663.74072266 C39.3228125 664.1176123 38.67248047 664.49450195 38.00244141 664.8828125 C-8.60316433 691.7166703 -63.37741085 697.48960789 -115.08544922 684.10400391 C-146.90000272 675.49203814 -175.73047466 658.93323631 -199.5 636.20019531 C-200.53001322 635.21563838 -201.56498006 634.23624126 -202.60449219 633.26171875 C-215.54474869 621.10047435 -226.29260504 607.21382362 -235.02685547 591.74072266 C-235.40374512 591.09039063 -235.78063477 590.44005859 -236.16894531 589.77001953 C-256.45047438 554.54463545 -262.69319179 517.07197168 -262.5350951 476.97724295 C-262.52378326 472.96631642 -262.53599301 468.95544219 -262.54493713 464.94451904 C-262.5587354 457.12670032 -262.55141476 449.30904518 -262.53626155 441.49123451 C-262.51924106 432.3560147 -262.52263157 423.22083382 -262.52635563 414.08560303 C-262.53220929 397.77106594 -262.51815949 381.45660647 -262.4934082 365.14208984 C-262.46947904 349.3673207 -262.46241334 333.59265514 -262.47290039 317.81787109 C-262.48434695 300.56929197 -262.4861949 283.32076053 -262.47180229 266.07218194 C-262.47027671 264.22813686 -262.46875635 262.38409178 -262.46724129 260.54004669 C-262.46648347 259.63312743 -262.46572566 258.72620817 -262.46494488 257.7918065 C-262.46023209 251.4469082 -262.46203185 245.10203143 -262.46630669 238.75713348 C-262.47126744 231.01206224 -262.46509835 223.26708829 -262.44541239 215.52203915 C-262.43563943 211.581968 -262.430325 207.64204398 -262.4383049 203.70196533 C-262.54045063 147.11715912 -247.29795594 94.89436692 -207.48632812 53.26757812 C-206.5017712 52.2375649 -205.52237407 51.20259806 -204.54785156 50.16308594 C-155.19170378 -2.35466562 -68.49633361 -25.89608085 0 0 Z " fill="#FEFEFE" transform="translate(458.02685546875,59.25927734375)"/>
<path d="M0 0 C2.2717815 0.85283161 4.56090905 1.6484363 6.85205078 2.44775391 C26.51585076 9.45799192 44.45130163 18.96561292 60.97314453 31.74072266 C61.53904297 32.17819824 62.10494141 32.61567383 62.68798828 33.06640625 C100.24090749 62.57066322 124.48106946 103.49638689 135.16064453 149.74072266 C135.3154126 150.39065186 135.47018066 151.04058105 135.62963867 151.71020508 C139.54314943 169.40931817 139.28074017 187.32515946 139.27857101 205.3423394 C139.28023753 209.34335062 139.29333775 213.34432861 139.30476379 217.34532166 C139.32747426 226.06919119 139.33551954 234.7930362 139.34059024 243.5169313 C139.34386415 248.98125994 139.35039675 254.44558167 139.35759163 259.90990639 C139.37714078 275.08822366 139.39355437 290.26653456 139.39646816 305.44486523 C139.39665573 306.41346824 139.3968433 307.38207126 139.39703656 308.38002588 C139.39740277 310.34297041 139.39776647 312.30591494 139.39812767 314.26885947 C139.39831048 315.24304844 139.39849329 316.21723741 139.39868164 317.22094727 C139.39895246 318.68404916 139.39895246 318.68404916 139.39922876 320.17670868 C139.40276436 335.95314655 139.42975588 351.72944743 139.46717953 367.50583788 C139.5054401 383.76740663 139.52462694 400.02890772 139.52492768 416.2905224 C139.52550833 425.39487828 139.53374424 434.49907074 139.56292534 443.60338402 C139.58767839 451.36091279 139.59456368 459.11821859 139.57967781 466.87577637 C139.57260463 470.81891815 139.57293904 474.76162188 139.59608841 478.70471191 C139.73189278 503.31019914 138.43432911 528.44303133 129.71386719 551.75146484 C128.86499313 554.03117012 128.06755743 556.32674048 127.26611328 558.62353516 C120.25207926 578.28516694 110.74798498 596.21922802 97.97314453 612.74072266 C97.53566895 613.30662109 97.09819336 613.87251953 96.64746094 614.45556641 C81.03416379 634.32811859 61.99636927 651.30906073 39.97314453 663.74072266 C39.3228125 664.1176123 38.67248047 664.49450195 38.00244141 664.8828125 C-8.60316433 691.7166703 -63.37741085 697.48960789 -115.08544922 684.10400391 C-146.90000272 675.49203814 -175.73047466 658.93323631 -199.5 636.20019531 C-200.53001322 635.21563838 -201.56498006 634.23624126 -202.60449219 633.26171875 C-215.54474869 621.10047435 -226.29260504 607.21382362 -235.02685547 591.74072266 C-235.40374512 591.09039063 -235.78063477 590.44005859 -236.16894531 589.77001953 C-256.45047438 554.54463545 -262.69319179 517.07197168 -262.5350951 476.97724295 C-262.52378326 472.96631642 -262.53599301 468.95544219 -262.54493713 464.94451904 C-262.5587354 457.12670032 -262.55141476 449.30904518 -262.53626155 441.49123451 C-262.51924106 432.3560147 -262.52263157 423.22083382 -262.52635563 414.08560303 C-262.53220929 397.77106594 -262.51815949 381.45660647 -262.4934082 365.14208984 C-262.46947904 349.3673207 -262.46241334 333.59265514 -262.47290039 317.81787109 C-262.48434695 300.56929197 -262.4861949 283.32076053 -262.47180229 266.07218194 C-262.47027671 264.22813686 -262.46875635 262.38409178 -262.46724129 260.54004669 C-262.46648347 259.63312743 -262.46572566 258.72620817 -262.46494488 257.7918065 C-262.46023209 251.4469082 -262.46203185 245.10203143 -262.46630669 238.75713348 C-262.47126744 231.01206224 -262.46509835 223.26708829 -262.44541239 215.52203915 C-262.43563943 211.581968 -262.430325 207.64204398 -262.4383049 203.70196533 C-262.54045063 147.11715912 -247.29795594 94.89436692 -207.48632812 53.26757812 C-206.5017712 52.2375649 -205.52237407 51.20259806 -204.54785156 50.16308594 C-155.19170378 -2.35466562 -68.49633361 -25.89608085 0 0 Z M-100.02685547 63.74072266 C-101.1606665 64.06218262 -101.1606665 64.06218262 -102.31738281 64.39013672 C-117.83756882 68.88807715 -132.78348834 75.42057857 -146.02685547 84.74072266 C-147.45191406 85.73845703 -147.45191406 85.73845703 -148.90576172 86.75634766 C-177.69288851 107.62419967 -198.46670876 136.92013735 -207.77685547 171.30322266 C-208.07523315 172.39944946 -208.07523315 172.39944946 -208.37963867 173.51782227 C-212.35646552 189.07879941 -212.31938507 204.40501984 -212.28830481 220.36561656 C-212.28373822 223.84087434 -212.29078485 227.31611277 -212.29626465 230.79136658 C-212.30511696 237.58273694 -212.30325498 244.37406288 -212.29743937 251.16543493 C-212.29290491 256.6917425 -212.29231765 262.21803771 -212.294487 267.74434662 C-212.29479347 268.53378142 -212.29509993 269.32321623 -212.29541568 270.1365733 C-212.2960552 271.74082766 -212.29670363 273.34508202 -212.29736087 274.94933638 C-212.30305236 289.96302181 -212.29652563 304.97668275 -212.28576013 319.99036416 C-212.27683267 332.83766391 -212.27837233 345.68492748 -212.28759766 358.53222656 C-212.29833325 373.48950919 -212.30249586 388.44677037 -212.29637313 403.40405631 C-212.29573611 405.00331608 -212.29510737 406.60257586 -212.294487 408.20183563 C-212.29417845 408.98847263 -212.2938699 409.77510963 -212.293552 410.58558412 C-212.29183437 416.09514985 -212.29472004 421.60470184 -212.29944611 427.11426544 C-212.30509194 433.84339847 -212.30346179 440.57248492 -212.29288462 447.3016127 C-212.28767614 450.72666662 -212.2854872 454.15164328 -212.29218292 457.5766964 C-212.36070823 503.81998845 -201.77006847 543.81459012 -169.02685547 577.74072266 C-168.23794922 578.59279297 -167.44904297 579.44486328 -166.63623047 580.32275391 C-140.2613573 608.05130434 -101.56326249 622.01776932 -63.88745117 623.07446289 C-50.94204228 623.25718853 -38.6472779 621.52659377 -26.02685547 618.74072266 C-24.76744141 618.46357422 -23.50802734 618.18642578 -22.21044922 617.90087891 C15.83055659 608.15483609 48.64021133 582.41543458 68.57617188 548.86083984 C73.57018919 540.1739285 77.44160838 531.1037349 80.97314453 521.74072266 C81.37404297 520.70431641 81.77494141 519.66791016 82.18798828 518.60009766 C87.84079281 502.98555835 89.1268937 486.11661611 89.11358643 469.63668823 C89.11655755 468.46730465 89.11952867 467.29792107 89.12258983 466.09310162 C89.12971328 462.87851456 89.13244466 459.66396028 89.13318729 456.44936657 C89.13505254 452.969987 89.14260697 449.49061868 89.14932251 446.01124573 C89.16284573 438.4180242 89.16892084 430.824808 89.17333317 423.23157644 C89.17610523 418.48198047 89.18034424 413.73238651 89.18483734 408.9827919 C89.19702108 395.80773738 89.20732285 382.63268446 89.21071243 369.45762444 C89.210932 368.61608289 89.21115157 367.77454135 89.21137778 366.90749855 C89.21159606 366.06406038 89.21181434 365.22062222 89.21203923 364.35162532 C89.21248268 362.64278277 89.21292925 360.93394021 89.21337891 359.22509766 C89.21360034 358.37747101 89.21382177 357.52984437 89.21404991 356.65653206 C89.21799563 342.93055598 89.23544681 329.20463306 89.25873843 315.4786775 C89.28251101 301.35422007 89.29491693 287.22978925 89.29608035 273.10531151 C89.29699368 265.18789336 89.30265948 257.27054453 89.32089996 249.3531456 C89.3363808 242.61036188 89.34137465 235.86766896 89.33316186 229.12487082 C89.32928367 225.69181814 89.33004431 222.25894784 89.34421921 218.8259182 C89.3923444 204.78444492 89.15182075 191.4630987 85.97314453 177.74072266 C85.77525455 176.79507383 85.57736458 175.84942501 85.37347794 174.87512016 C80.43744692 151.30195834 68.80460617 129.7577666 52.97314453 111.74072266 C51.89613281 110.48195313 51.89613281 110.48195313 50.79736328 109.19775391 C41.71928552 98.79746944 31.65064227 90.10986045 19.97314453 82.74072266 C19.08248291 82.17804688 19.08248291 82.17804688 18.17382812 81.60400391 C2.57786127 71.93029491 -14.9817354 65.14791423 -33.02685547 61.74072266 C-34.40151978 61.47799561 -34.40151978 61.47799561 -35.80395508 61.20996094 C-44.74293272 59.65986519 -53.54707777 59.34081488 -62.58935547 59.36572266 C-63.33564209 59.36626648 -64.08192871 59.3668103 -64.85083008 59.36737061 C-76.96718044 59.40785344 -88.34188707 60.32187419 -100.02685547 63.74072266 Z " fill="#000000" transform="translate(458.02685546875,59.25927734375)"/>
<path d="M0 0 C6.27 0 12.54 0 19 0 C21.91914082 11.44222857 24.61260322 22.91611008 27.14697266 34.44946289 C27.75790715 37.22340228 28.37693407 39.99546452 28.99609375 42.76757812 C29.38851313 44.54676649 29.78045822 46.32605955 30.171875 48.10546875 C30.3561908 48.9262944 30.54050659 49.74712006 30.73040771 50.59281921 C31.57241846 54.46284964 32.23442161 58.01132627 32 62 C32.66 62 33.32 62 34 62 C34.07476562 61.37738281 34.14953125 60.75476563 34.2265625 60.11328125 C35.31439606 52.46645123 37.27797427 45.26739619 39.46411133 37.87329102 C42.16653093 28.6443039 44.46077225 19.32285571 46.72729492 9.97851562 C47.00935791 8.82544922 47.2914209 7.67238281 47.58203125 6.484375 C47.83186768 5.45022461 48.0817041 4.41607422 48.33911133 3.35058594 C49 1 49 1 50 0 C51.70772358 -0.08713831 53.41898649 -0.10700007 55.12890625 -0.09765625 C56.68061523 -0.09282227 56.68061523 -0.09282227 58.26367188 -0.08789062 C59.35228516 -0.07951172 60.44089844 -0.07113281 61.5625 -0.0625 C63.2012207 -0.05573242 63.2012207 -0.05573242 64.87304688 -0.04882812 C67.58208495 -0.03699826 70.29101599 -0.02051543 73 0 C73.31227539 1.25433838 73.62455078 2.50867676 73.94628906 3.80102539 C75.12293945 8.52594601 76.30123181 13.25045596 77.47998047 17.97485352 C77.98660225 20.00632013 78.49279893 22.03789282 78.99853516 24.06958008 C82.58596365 38.48605003 82.58596365 38.48605003 86.296875 52.87109375 C86.60463867 54.04470459 86.91240234 55.21831543 87.22949219 56.42749023 C87.75114832 58.90931191 87.75114832 58.90931191 89 60 C90.65 53.07 92.3 46.14 94 39 C94.66 39 95.32 39 96 39 C96.05607422 38.16082031 96.05607422 38.16082031 96.11328125 37.3046875 C96.73620006 29.70752081 98.30276728 22.42139026 100 15 C100.27328125 13.77410156 100.5465625 12.54820312 100.828125 11.28515625 C102.85638833 2.28722334 102.85638833 2.28722334 104 0 C109.94 0 115.88 0 122 0 C121.45287252 7.21687205 120.18812961 13.78903543 118.25 20.75 C116.21772416 28.28347809 114.30552671 35.81777392 112.625 43.4375 C110.1957258 54.41831017 107.45183067 65.31477812 104.67822266 76.21264648 C104.50870087 76.88230942 104.33917908 77.55197235 104.16452026 78.2419281 C103.70113792 80.07193386 103.23494094 81.90122625 102.76855469 83.73046875 C102.04875614 86.79258504 101.51712997 89.89722016 101 93 C93.74 93 86.48 93 79 93 C78.46890625 90.93621094 77.9378125 88.87242187 77.390625 86.74609375 C76.86115546 84.69047165 76.33146629 82.63490625 75.80175781 80.5793457 C75.4408526 79.17836278 75.08016657 77.77732338 74.71972656 76.3762207 C71.20912374 62.73095861 67.65523093 49.10129804 63.75 35.5625 C63.481875 34.62857422 63.21375 33.69464844 62.9375 32.73242188 C62.29292403 30.48791626 61.64710049 28.24377881 61 26 C57.95584131 35.16828971 55.59523947 44.45587595 53.28930664 53.83105469 C51.54345706 60.9025994 49.67547186 67.92680354 47.69482422 74.93579102 C46.00459396 80.92810939 44.47363753 86.95033013 43 93 C36.07 93 29.14 93 22 93 C21.43023437 90.71707031 20.86046875 88.43414062 20.2734375 86.08203125 C18.98660455 80.92971068 17.6930255 75.77917701 16.38858032 70.63128662 C11.62114958 51.81460568 7.06981133 32.98227834 3 14 C2.65644284 12.41011457 2.31271145 10.82026677 1.96875 9.23046875 C1.30418601 6.15530027 0.6518089 3.07798648 0 0 Z " fill="#030303" transform="translate(341,192)"/>
<path d="M0 0 C6.27 0 12.54 0 19 0 C23.07406002 4.23600629 25.27020149 7.30234748 27.6875 12.375 C28.36101686 13.64499178 29.04240385 14.9108379 29.73120117 16.17260742 C31.14994426 18.78429321 32.5337936 21.41044737 33.89746094 24.05126953 C36.88662414 29.7605467 40.32521573 35.18765745 43.75869751 40.63677979 C45.42443708 43.28558115 47.06587677 45.94919937 48.70703125 48.61328125 C49.2481958 49.48766846 49.78936035 50.36205566 50.34692383 51.26293945 C52.28719277 54.47551589 54.13797193 57.74145088 56 61 C56.33 40.87 56.66 20.74 57 0 C62.94 0 68.88 0 75 0 C75 30.69 75 61.38 75 93 C55 93 55 93 50.87890625 89.58203125 C49.63647461 87.31225586 49.63647461 87.31225586 48.5625 84.8125 C47.63996556 83.05887139 46.7154119 81.30630386 45.7890625 79.5546875 C45.11278809 78.18135254 45.11278809 78.18135254 44.42285156 76.78027344 C42.05403437 72.15156888 39.22580922 67.8214861 36.4375 63.4375 C30.56821845 53.9934797 24.79797501 44.48759547 19 35 C18.67 54.14 18.34 73.28 18 93 C12.06 93 6.12 93 0 93 C0 62.31 0 31.62 0 0 Z " fill="#040404" transform="translate(364,512)"/>
<path d="M0 0 C23.1 0 46.2 0 70 0 C70 5.28 70 10.56 70 16 C53.17 16 36.34 16 19 16 C19 22.6 19 29.2 19 36 C34.18 36 49.36 36 65 36 C65 41.28 65 46.56 65 52 C49.82 52 34.64 52 19 52 C19 60.25 19 68.5 19 77 C36.16 77 53.32 77 71 77 C71 82.28 71 87.56 71 93 C47.57 93 24.14 93 0 93 C0 62.31 0 31.62 0 0 Z " fill="#010101" transform="translate(368,352)"/>
</svg>
