<?xml version="1.0" encoding="UTF-8"?>
<!DOCTYPE svg PUBLIC "-//W3C//DTD SVG 1.1//EN" "http://www.w3.org/Graphics/SVG/1.1/DTD/svg11.dtd">
<svg xmlns="http://www.w3.org/2000/svg" version="1.1" width="500px" height="500px" style="shape-rendering:geometricPrecision; text-rendering:geometricPrecision; image-rendering:optimizeQuality; fill-rule:evenodd; clip-rule:evenodd" xmlns:xlink="http://www.w3.org/1999/xlink">
<g><path style="opacity:1" fill="#fd8d31" d="M 326.5,253.5 C 306.035,273.465 285.701,293.632 265.5,314C 261.167,317.667 256.833,321.333 252.5,325C 244.655,333.677 236.655,342.177 228.5,350.5C 222.989,355.743 217.323,360.743 211.5,365.5C 209.5,365.833 207.5,366.167 205.5,366.5C 205.5,355.833 205.5,345.167 205.5,334.5C 192.167,334.5 178.833,334.5 165.5,334.5C 165.5,321.167 165.5,307.833 165.5,294.5C 153.833,294.5 142.167,294.5 130.5,294.5C 130.821,288.974 130.488,283.64 129.5,278.5C 129.158,277.662 128.492,277.328 127.5,277.5C 127.167,277.5 126.833,277.5 126.5,277.5C 126.077,276.735 125.743,275.902 125.5,275C 129.438,269.517 134.105,264.683 139.5,260.5C 141.727,258.393 143.727,256.06 145.5,253.5C 148.833,250.833 151.833,247.833 154.5,244.5C 156.749,243.92 158.415,242.587 159.5,240.5C 172.726,225.605 186.726,211.272 201.5,197.5C 202.75,197.577 203.583,198.244 204,199.5C 204.494,201.134 204.66,202.801 204.5,204.5C 207.708,204.526 209.708,203.526 210.5,201.5C 211.795,202.098 213.128,202.598 214.5,203C 215.451,203.718 215.617,204.551 215,205.5C 214.107,204.289 213.274,204.289 212.5,205.5C 214.272,208.277 216.105,208.61 218,206.5C 218.5,207 219,207.5 219.5,208C 218.026,209.316 216.359,210.316 214.5,211C 215.646,211.645 216.646,212.478 217.5,213.5C 217.736,212.753 218.07,211.92 218.5,211C 219.833,210.333 221.167,209.667 222.5,209C 222.167,208.667 221.833,208.333 221.5,208C 222.833,207.667 224.167,207.333 225.5,207C 222.39,206.947 220.056,205.614 218.5,203C 220.167,202.667 221.833,202.333 223.5,202C 222.542,200.853 222.875,199.853 224.5,199C 223.359,198.259 223.359,197.425 224.5,196.5C 221.909,194.261 218.909,192.761 215.5,192C 217.355,189.613 219.688,187.946 222.5,187C 220.699,186.683 220.366,186.016 221.5,185C 222.793,184.51 224.127,184.343 225.5,184.5C 225.151,181.955 225.984,179.955 228,178.5C 230.738,180.646 233.738,182.313 237,183.5C 237.167,183.833 237.333,184.167 237.5,184.5C 236.271,185.281 234.938,185.781 233.5,186C 234.458,187.147 234.125,188.147 232.5,189C 234.202,190.583 235.536,190.083 236.5,187.5C 237.854,189.184 239.521,189.684 241.5,189C 241.167,188.667 240.833,188.333 240.5,188C 243.548,187.394 246.048,185.894 248,183.5C 248.388,184.428 249.055,185.095 250,185.5C 251.011,185.108 251.511,184.441 251.5,183.5C 252.386,184.325 252.719,185.325 252.5,186.5C 253.873,186.657 255.207,186.49 256.5,186C 255.366,184.984 255.699,184.317 257.5,184C 256.273,182.413 256.606,181.079 258.5,180C 257.167,179.667 255.833,179.333 254.5,179C 256.101,178.727 257.601,178.227 259,177.5C 260.951,179.137 260.784,180.637 258.5,182C 261.244,181.009 263.911,181.343 266.5,183C 264.866,183.494 263.199,183.66 261.5,183.5C 260.948,185.331 260.948,186.997 261.5,188.5C 262.719,187.737 263.719,186.737 264.5,185.5C 265.48,186.981 266.647,188.315 268,189.5C 268.197,184.491 266.53,180.157 263,176.5C 262.667,176.833 262.333,177.167 262,177.5C 261.333,176.167 261.333,174.833 262,173.5C 262.414,173.957 262.914,174.291 263.5,174.5C 266.378,172.205 269.378,172.205 272.5,174.5C 273.263,175.719 274.263,176.719 275.5,177.5C 274.159,179.834 274.826,181.501 277.5,182.5C 278.696,182.154 278.696,181.654 277.5,181C 279.095,181.617 280.428,181.284 281.5,180C 280.448,178.284 281.114,177.284 283.5,177C 282.027,176.29 281.36,175.124 281.5,173.5C 283.359,173.539 284.692,172.706 285.5,171C 284.407,169.635 283.074,169.301 281.5,170C 282.167,170.667 282.833,171.333 283.5,172C 279.832,172.463 278.498,174.297 279.5,177.5C 279.192,178.308 278.692,178.975 278,179.5C 277.803,177.139 276.636,175.472 274.5,174.5C 274.977,173.522 275.643,172.689 276.5,172C 275.692,171.692 275.025,171.192 274.5,170.5C 275.665,169.416 276.998,168.583 278.5,168C 278.167,167.667 277.833,167.333 277.5,167C 279.481,166.395 279.815,165.395 278.5,164C 276.866,163.506 275.199,163.34 273.5,163.5C 273.528,161.418 272.861,159.584 271.5,158C 272,157.5 272.5,157 273,156.5C 273.7,158.032 274.866,159.032 276.5,159.5C 278.167,157.5 279.833,155.5 281.5,153.5C 282.748,154.04 283.915,154.707 285,155.5C 285.483,154.552 285.649,153.552 285.5,152.5C 286.978,152.762 288.311,152.429 289.5,151.5C 287.492,151.096 285.325,150.096 283,148.5C 282.691,149.766 282.191,150.933 281.5,152C 277.736,152.899 274.236,154.399 271,156.5C 270.691,155.234 270.191,154.067 269.5,153C 272.207,153.433 274.707,152.599 277,150.5C 279.292,151.601 280.792,150.768 281.5,148C 283.134,147.506 284.801,147.34 286.5,147.5C 287.263,143.591 285.93,142.258 282.5,143.5C 281.167,142.5 279.833,141.5 278.5,140.5C 276.729,141.035 276.396,141.869 277.5,143C 276.716,145.998 275.049,146.831 272.5,145.5C 274.991,144.459 274.991,143.626 272.5,143C 275.792,141.091 278.625,138.591 281,135.5C 281.667,136.167 282.333,136.833 283,137.5C 283.718,136.549 284.551,136.383 285.5,137C 284.304,137.654 284.304,138.154 285.5,138.5C 287.116,137.885 288.449,136.885 289.5,135.5C 290.696,135.846 290.696,136.346 289.5,137C 290.833,137.333 292.167,137.667 293.5,138C 292.135,139.682 290.635,139.849 289,138.5C 288.228,139.849 287.061,140.682 285.5,141C 286.949,142.117 288.616,142.784 290.5,143C 289.075,144.362 288.242,145.862 288,147.5C 289.667,146.167 291.333,146.167 293,147.5C 294.715,145.093 296.882,144.426 299.5,145.5C 300.478,145.023 301.311,144.357 302,143.5C 302.308,144.308 302.808,144.975 303.5,145.5C 306.683,145.402 310.016,145.235 313.5,145C 315.333,145.5 316.5,146.667 317,148.5C 319.168,147.371 319.668,145.871 318.5,144C 319.5,143.5 320.5,143 321.5,142.5C 321.833,143.167 322.167,143.833 322.5,144.5C 323.5,144.167 324.167,143.5 324.5,142.5C 322.922,141.702 321.256,141.202 319.5,141C 322.417,138.921 324.083,136.421 324.5,133.5C 326.665,136.903 329.165,137.236 332,134.5C 332.29,136.044 332.956,137.377 334,138.5C 334.333,137.833 334.667,137.167 335,136.5C 335.997,140.888 338.163,141.554 341.5,138.5C 341.736,139.247 342.07,140.08 342.5,141C 341.833,141.333 341.167,141.667 340.5,142C 341.793,142.49 343.127,142.657 344.5,142.5C 343.862,140.54 343.862,138.707 344.5,137C 342.5,136.667 340.5,136.333 338.5,136C 339.623,134.956 340.956,134.29 342.5,134C 341.5,133.667 340.5,133.333 339.5,133C 339.167,132 338.833,131 338.5,130C 339.744,129.544 340.577,130.044 341,131.5C 341.333,131.167 341.667,130.833 342,130.5C 344.168,133.037 346.334,135.537 348.5,138C 351.926,139.238 353.592,138.071 353.5,134.5C 355.665,134.884 357.332,134.217 358.5,132.5C 357.418,132.251 356.085,132.085 354.5,132C 353.672,131.085 352.672,130.419 351.5,130C 352,129.833 352.5,129.667 353,129.5C 355.025,129.828 357.191,129.994 359.5,130C 360.711,131.113 360.711,132.28 359.5,133.5C 360.668,136.469 362.001,136.802 363.5,134.5C 364.833,135.833 366.167,135.833 367.5,134.5C 367.833,134.833 368.167,135.167 368.5,135.5C 366.49,136.065 364.824,137.065 363.5,138.5C 364.246,139.736 364.579,141.07 364.5,142.5C 365.552,142.351 366.552,142.517 367.5,143C 366.396,144.131 366.729,144.965 368.5,145.5C 369.167,144.5 369.833,143.5 370.5,142.5C 371.324,144.748 372.324,144.914 373.5,143C 372.366,141.984 372.699,141.317 374.5,141C 373.833,140.667 373.167,140.333 372.5,140C 373.563,138.812 374.897,138.312 376.5,138.5C 376.67,139.822 376.337,140.989 375.5,142C 377.355,145.281 379.355,148.448 381.5,151.5C 380.167,152.833 378.833,154.167 377.5,155.5C 370.959,156.202 370.959,155.368 377.5,153C 374.621,152.043 372.121,152.543 370,154.5C 368.907,152.651 367.574,150.984 366,149.5C 364.989,150.337 363.822,150.67 362.5,150.5C 363.49,153.516 364.157,156.35 364.5,159C 362.445,159.687 360.779,160.854 359.5,162.5C 360.355,163.293 361.189,162.96 362,161.5C 362.667,162.833 363.333,164.167 364,165.5C 365.667,166.833 367.333,166.833 369,165.5C 370.163,168.827 368.997,170.827 365.5,171.5C 366.833,172.5 366.833,173.5 365.5,174.5C 366.981,175.48 368.315,176.647 369.5,178C 367.114,178.284 366.448,179.284 367.5,181C 366.551,181.617 365.718,181.451 365,180.5C 363.681,182.487 361.848,183.654 359.5,184C 360.337,185.011 360.67,186.178 360.5,187.5C 363.729,187.165 365.229,188.498 365,191.5C 362.159,189.496 358.993,188.996 355.5,190C 354.449,191.385 353.116,192.385 351.5,193C 351.056,194.533 350.723,196.033 350.5,197.5C 352.108,198.242 353.775,198.409 355.5,198C 354.167,199.333 354.167,200.667 355.5,202C 351.511,202.17 347.511,203.17 343.5,205C 343.042,207.398 341.708,209.064 339.5,210C 340.214,211.343 339.88,212.676 338.5,214C 340.454,213.547 342.287,213.38 344,213.5C 345.544,216.264 346.711,216.097 347.5,213C 345.74,212.035 345.406,210.868 346.5,209.5C 347.584,210.665 348.417,211.998 349,213.5C 349.5,213 350,212.5 350.5,212C 349.289,210.887 349.289,209.72 350.5,208.5C 348.276,206.757 348.776,205.424 352,204.5C 353.811,205.424 353.645,206.257 351.5,207C 352.763,208.705 353.097,210.372 352.5,212C 354.384,212.216 356.051,212.883 357.5,214C 356.451,214.492 355.451,214.326 354.5,213.5C 353.396,214.631 353.729,215.465 355.5,216C 354.579,217.756 353.412,217.923 352,216.5C 349.189,219.656 345.689,221.323 341.5,221.5C 341.33,222.822 341.663,223.989 342.5,225C 340.319,227.078 338.319,226.911 336.5,224.5C 336.167,224.833 335.833,225.167 335.5,225.5C 337.335,226.428 337.668,227.594 336.5,229C 337.696,230.834 338.529,232.667 339,234.5C 337.992,234.018 336.825,233.852 335.5,234C 334.542,232.853 334.875,231.853 336.5,231C 335.584,230.626 334.75,230.126 334,229.5C 333.5,230.667 332.667,231.5 331.5,232C 334.712,233.709 334.878,235.209 332,236.5C 331.147,234.875 330.147,234.542 329,235.5C 328.738,240.211 329.571,240.877 331.5,237.5C 332.248,239.332 333.248,240.999 334.5,242.5C 333.009,243.244 331.509,243.91 330,244.5C 327.732,247.085 326.566,250.085 326.5,253.5 Z"/></g>
<g><path style="opacity:0.124" fill="#f2ded2" d="M 211.5,369.5 C 210.375,368.652 210.375,367.652 211.5,366.5C 211.5,366.167 211.5,365.833 211.5,365.5C 217.323,360.743 222.989,355.743 228.5,350.5C 236.655,342.177 244.655,333.677 252.5,325C 256.833,321.333 261.167,317.667 265.5,314C 285.701,293.632 306.035,273.465 326.5,253.5C 365.439,215.394 403.939,176.728 442,137.5C 442.749,136.365 442.583,135.365 441.5,134.5C 426.882,120.717 412.382,106.717 398,92.5C 397.517,91.552 397.351,90.552 397.5,89.5C 396.448,89.6495 395.448,89.4828 394.5,89C 390.124,82.9564 384.79,77.9564 378.5,74C 377.809,72.9326 377.309,71.7659 377,70.5C 369.084,62.92 361.25,55.2533 353.5,47.5C 352.277,46.3861 350.944,46.2195 349.5,47C 342.755,55.392 335.255,62.892 327,69.5C 285.597,112.075 243.764,154.741 201.5,197.5C 186.726,211.272 172.726,225.605 159.5,240.5C 157.251,241.08 155.585,242.413 154.5,244.5C 151.833,247.833 148.833,250.833 145.5,253.5C 144.833,253.5 144.167,253.5 143.5,253.5C 173.021,222.809 202.854,192.142 233,161.5C 272.392,123.109 311.558,84.276 350.5,45C 352.289,44.4795 353.956,44.8129 355.5,46C 385.42,75.7694 415.42,105.269 445.5,134.5C 445.833,135.167 446.167,135.833 446.5,136.5C 432.69,153.144 417.69,168.644 401.5,183C 357.248,226.586 313.248,270.586 269.5,315C 264.979,319.022 260.312,322.856 255.5,326.5C 250.645,333.522 244.645,339.355 237.5,344C 234.978,348.034 231.978,351.701 228.5,355C 222.318,359.395 216.652,364.229 211.5,369.5 Z"/></g>
<g><path style="opacity:0.999" fill="#fd8d32" d="M 326.5,253.5 C 326.566,250.085 327.732,247.085 330,244.5C 331.509,243.91 333.009,243.244 334.5,242.5C 333.248,240.999 332.248,239.332 331.5,237.5C 329.571,240.877 328.738,240.211 329,235.5C 330.147,234.542 331.147,234.875 332,236.5C 334.878,235.209 334.712,233.709 331.5,232C 332.667,231.5 333.5,230.667 334,229.5C 334.75,230.126 335.584,230.626 336.5,231C 334.875,231.853 334.542,232.853 335.5,234C 336.825,233.852 337.992,234.018 339,234.5C 338.529,232.667 337.696,230.834 336.5,229C 337.668,227.594 337.335,226.428 335.5,225.5C 335.833,225.167 336.167,224.833 336.5,224.5C 338.319,226.911 340.319,227.078 342.5,225C 341.663,223.989 341.33,222.822 341.5,221.5C 345.689,221.323 349.189,219.656 352,216.5C 353.412,217.923 354.579,217.756 355.5,216C 353.729,215.465 353.396,214.631 354.5,213.5C 355.451,214.326 356.451,214.492 357.5,214C 356.051,212.883 354.384,212.216 352.5,212C 353.097,210.372 352.763,208.705 351.5,207C 353.645,206.257 353.811,205.424 352,204.5C 348.776,205.424 348.276,206.757 350.5,208.5C 349.289,209.72 349.289,210.887 350.5,212C 350,212.5 349.5,213 349,213.5C 348.417,211.998 347.584,210.665 346.5,209.5C 345.406,210.868 345.74,212.035 347.5,213C 346.711,216.097 345.544,216.264 344,213.5C 342.287,213.38 340.454,213.547 338.5,214C 339.88,212.676 340.214,211.343 339.5,210C 341.708,209.064 343.042,207.398 343.5,205C 347.511,203.17 351.511,202.17 355.5,202C 354.167,200.667 354.167,199.333 355.5,198C 353.775,198.409 352.108,198.242 350.5,197.5C 350.723,196.033 351.056,194.533 351.5,193C 353.116,192.385 354.449,191.385 355.5,190C 358.993,188.996 362.159,189.496 365,191.5C 365.229,188.498 363.729,187.165 360.5,187.5C 360.67,186.178 360.337,185.011 359.5,184C 361.848,183.654 363.681,182.487 365,180.5C 365.718,181.451 366.551,181.617 367.5,181C 366.448,179.284 367.114,178.284 369.5,178C 368.315,176.647 366.981,175.48 365.5,174.5C 366.833,173.5 366.833,172.5 365.5,171.5C 368.997,170.827 370.163,168.827 369,165.5C 367.333,166.833 365.667,166.833 364,165.5C 363.333,164.167 362.667,162.833 362,161.5C 361.189,162.96 360.355,163.293 359.5,162.5C 360.779,160.854 362.445,159.687 364.5,159C 364.157,156.35 363.49,153.516 362.5,150.5C 363.822,150.67 364.989,150.337 366,149.5C 367.574,150.984 368.907,152.651 370,154.5C 372.121,152.543 374.621,152.043 377.5,153C 370.959,155.368 370.959,156.202 377.5,155.5C 378.833,154.167 380.167,152.833 381.5,151.5C 379.355,148.448 377.355,145.281 375.5,142C 376.337,140.989 376.67,139.822 376.5,138.5C 374.897,138.312 373.563,138.812 372.5,140C 373.167,140.333 373.833,140.667 374.5,141C 372.699,141.317 372.366,141.984 373.5,143C 372.324,144.914 371.324,144.748 370.5,142.5C 369.833,143.5 369.167,144.5 368.5,145.5C 366.729,144.965 366.396,144.131 367.5,143C 366.552,142.517 365.552,142.351 364.5,142.5C 364.579,141.07 364.246,139.736 363.5,138.5C 364.824,137.065 366.49,136.065 368.5,135.5C 368.167,135.167 367.833,134.833 367.5,134.5C 366.167,135.833 364.833,135.833 363.5,134.5C 362.001,136.802 360.668,136.469 359.5,133.5C 360.711,132.28 360.711,131.113 359.5,130C 357.191,129.994 355.025,129.828 353,129.5C 352.5,129.667 352,129.833 351.5,130C 352.672,130.419 353.672,131.085 354.5,132C 356.085,132.085 357.418,132.251 358.5,132.5C 357.332,134.217 355.665,134.884 353.5,134.5C 353.592,138.071 351.926,139.238 348.5,138C 346.334,135.537 344.168,133.037 342,130.5C 341.667,130.833 341.333,131.167 341,131.5C 340.577,130.044 339.744,129.544 338.5,130C 338.833,131 339.167,132 339.5,133C 340.5,133.333 341.5,133.667 342.5,134C 340.956,134.29 339.623,134.956 338.5,136C 340.5,136.333 342.5,136.667 344.5,137C 343.862,138.707 343.862,140.54 344.5,142.5C 343.127,142.657 341.793,142.49 340.5,142C 341.167,141.667 341.833,141.333 342.5,141C 342.07,140.08 341.736,139.247 341.5,138.5C 338.163,141.554 335.997,140.888 335,136.5C 334.667,137.167 334.333,137.833 334,138.5C 332.956,137.377 332.29,136.044 332,134.5C 329.165,137.236 326.665,136.903 324.5,133.5C 324.083,136.421 322.417,138.921 319.5,141C 321.256,141.202 322.922,141.702 324.5,142.5C 324.167,143.5 323.5,144.167 322.5,144.5C 322.167,143.833 321.833,143.167 321.5,142.5C 320.5,143 319.5,143.5 318.5,144C 319.668,145.871 319.168,147.371 317,148.5C 316.5,146.667 315.333,145.5 313.5,145C 310.016,145.235 306.683,145.402 303.5,145.5C 302.808,144.975 302.308,144.308 302,143.5C 301.311,144.357 300.478,145.023 299.5,145.5C 296.882,144.426 294.715,145.093 293,147.5C 291.333,146.167 289.667,146.167 288,147.5C 288.242,145.862 289.075,144.362 290.5,143C 288.616,142.784 286.949,142.117 285.5,141C 287.061,140.682 288.228,139.849 289,138.5C 290.635,139.849 292.135,139.682 293.5,138C 292.167,137.667 290.833,137.333 289.5,137C 290.696,136.346 290.696,135.846 289.5,135.5C 288.449,136.885 287.116,137.885 285.5,138.5C 284.304,138.154 284.304,137.654 285.5,137C 284.551,136.383 283.718,136.549 283,137.5C 282.333,136.833 281.667,136.167 281,135.5C 278.625,138.591 275.792,141.091 272.5,143C 274.991,143.626 274.991,144.459 272.5,145.5C 275.049,146.831 276.716,145.998 277.5,143C 276.396,141.869 276.729,141.035 278.5,140.5C 279.833,141.5 281.167,142.5 282.5,143.5C 285.93,142.258 287.263,143.591 286.5,147.5C 284.801,147.34 283.134,147.506 281.5,148C 280.792,150.768 279.292,151.601 277,150.5C 274.707,152.599 272.207,153.433 269.5,153C 270.191,154.067 270.691,155.234 271,156.5C 274.236,154.399 277.736,152.899 281.5,152C 282.191,150.933 282.691,149.766 283,148.5C 285.325,150.096 287.492,151.096 289.5,151.5C 288.311,152.429 286.978,152.762 285.5,152.5C 285.649,153.552 285.483,154.552 285,155.5C 283.915,154.707 282.748,154.04 281.5,153.5C 279.833,155.5 278.167,157.5 276.5,159.5C 274.866,159.032 273.7,158.032 273,156.5C 272.5,157 272,157.5 271.5,158C 272.861,159.584 273.528,161.418 273.5,163.5C 275.199,163.34 276.866,163.506 278.5,164C 279.815,165.395 279.481,166.395 277.5,167C 277.833,167.333 278.167,167.667 278.5,168C 276.998,168.583 275.665,169.416 274.5,170.5C 275.025,171.192 275.692,171.692 276.5,172C 275.643,172.689 274.977,173.522 274.5,174.5C 276.636,175.472 277.803,177.139 278,179.5C 278.692,178.975 279.192,178.308 279.5,177.5C 278.498,174.297 279.832,172.463 283.5,172C 282.833,171.333 282.167,170.667 281.5,170C 283.074,169.301 284.407,169.635 285.5,171C 284.692,172.706 283.359,173.539 281.5,173.5C 281.36,175.124 282.027,176.29 283.5,177C 281.114,177.284 280.448,178.284 281.5,180C 280.428,181.284 279.095,181.617 277.5,181C 278.696,181.654 278.696,182.154 277.5,182.5C 274.826,181.501 274.159,179.834 275.5,177.5C 274.263,176.719 273.263,175.719 272.5,174.5C 269.378,172.205 266.378,172.205 263.5,174.5C 262.914,174.291 262.414,173.957 262,173.5C 261.333,174.833 261.333,176.167 262,177.5C 262.333,177.167 262.667,176.833 263,176.5C 266.53,180.157 268.197,184.491 268,189.5C 266.647,188.315 265.48,186.981 264.5,185.5C 263.719,186.737 262.719,187.737 261.5,188.5C 260.948,186.997 260.948,185.331 261.5,183.5C 263.199,183.66 264.866,183.494 266.5,183C 263.911,181.343 261.244,181.009 258.5,182C 260.784,180.637 260.951,179.137 259,177.5C 257.601,178.227 256.101,178.727 254.5,179C 255.833,179.333 257.167,179.667 258.5,180C 256.606,181.079 256.273,182.413 257.5,184C 255.699,184.317 255.366,184.984 256.5,186C 255.207,186.49 253.873,186.657 252.5,186.5C 252.719,185.325 252.386,184.325 251.5,183.5C 251.511,184.441 251.011,185.108 250,185.5C 249.055,185.095 248.388,184.428 248,183.5C 246.048,185.894 243.548,187.394 240.5,188C 240.833,188.333 241.167,188.667 241.5,189C 239.521,189.684 237.854,189.184 236.5,187.5C 235.536,190.083 234.202,190.583 232.5,189C 234.125,188.147 234.458,187.147 233.5,186C 234.938,185.781 236.271,185.281 237.5,184.5C 237.333,184.167 237.167,183.833 237,183.5C 233.738,182.313 230.738,180.646 228,178.5C 225.984,179.955 225.151,181.955 225.5,184.5C 224.127,184.343 222.793,184.51 221.5,185C 220.366,186.016 220.699,186.683 222.5,187C 219.688,187.946 217.355,189.613 215.5,192C 218.909,192.761 221.909,194.261 224.5,196.5C 223.359,197.425 223.359,198.259 224.5,199C 222.875,199.853 222.542,200.853 223.5,202C 221.833,202.333 220.167,202.667 218.5,203C 220.056,205.614 222.39,206.947 225.5,207C 224.167,207.333 222.833,207.667 221.5,208C 221.833,208.333 222.167,208.667 222.5,209C 221.167,209.667 219.833,210.333 218.5,211C 218.07,211.92 217.736,212.753 217.5,213.5C 216.646,212.478 215.646,211.645 214.5,211C 216.359,210.316 218.026,209.316 219.5,208C 219,207.5 218.5,207 218,206.5C 216.105,208.61 214.272,208.277 212.5,205.5C 213.274,204.289 214.107,204.289 215,205.5C 215.617,204.551 215.451,203.718 214.5,203C 213.128,202.598 211.795,202.098 210.5,201.5C 209.708,203.526 207.708,204.526 204.5,204.5C 204.66,202.801 204.494,201.134 204,199.5C 203.583,198.244 202.75,197.577 201.5,197.5C 243.764,154.741 285.597,112.075 327,69.5C 335.255,62.892 342.755,55.392 349.5,47C 350.944,46.2195 352.277,46.3861 353.5,47.5C 361.25,55.2533 369.084,62.92 377,70.5C 377.309,71.7659 377.809,72.9326 378.5,74C 384.79,77.9564 390.124,82.9564 394.5,89C 395.448,89.4828 396.448,89.6495 397.5,89.5C 397.351,90.552 397.517,91.552 398,92.5C 412.382,106.717 426.882,120.717 441.5,134.5C 442.583,135.365 442.749,136.365 442,137.5C 403.939,176.728 365.439,215.394 326.5,253.5 Z"/></g>
<g><path style="opacity:0.737" fill="#f9af74" d="M 159.5,240.5 C 158.415,242.587 156.749,243.92 154.5,244.5C 155.585,242.413 157.251,241.08 159.5,240.5 Z"/></g>
<g><path style="opacity:0.737" fill="#f9ae75" d="M 143.5,253.5 C 144.167,253.5 144.833,253.5 145.5,253.5C 143.727,256.06 141.727,258.393 139.5,260.5C 140.569,258.031 141.902,255.698 143.5,253.5 Z"/></g>
<g><path style="opacity:0.067" fill="#ebdccd" d="M 143.5,253.5 C 141.902,255.698 140.569,258.031 139.5,260.5C 134.105,264.683 129.438,269.517 125.5,275C 125.743,275.902 126.077,276.735 126.5,277.5C 124.983,277.511 123.816,278.177 123,279.5C 120.62,283.594 118.787,287.927 117.5,292.5C 115.787,293.635 115.12,295.302 115.5,297.5C 113.056,301.163 111.389,305.163 110.5,309.5C 108.62,311.755 107.62,314.422 107.5,317.5C 104.914,321.928 102.914,326.594 101.5,331.5C 98.8539,336.105 97.1873,341.105 96.5,346.5C 95.3263,347.514 94.6596,348.847 94.5,350.5C 92.6744,353.926 91.0078,357.592 89.5,361.5C 87.8724,366.848 85.3724,371.848 82,376.5C 81.51,377.793 81.3433,379.127 81.5,380.5C 79.7868,381.635 79.1201,383.302 79.5,385.5C 77.9748,388.079 76.6414,390.746 75.5,393.5C 75.1667,393.5 74.8333,393.5 74.5,393.5C 78.768,376.295 85.268,359.961 94,344.5C 103.297,318.949 113.964,293.949 126,269.5C 131.544,265.78 136.211,261.113 140,255.5C 140.816,254.177 141.983,253.511 143.5,253.5 Z"/></g>
<g><path style="opacity:1" fill="#5a5f82" d="M 127.5,277.5 C 128.492,277.328 129.158,277.662 129.5,278.5C 129.5,284.167 129.5,289.833 129.5,295.5C 128.795,289.601 128.128,283.601 127.5,277.5 Z"/></g>
<g><path style="opacity:0.376" fill="#889abd" d="M 117.5,292.5 C 117.204,294.403 116.537,296.07 115.5,297.5C 115.12,295.302 115.787,293.635 117.5,292.5 Z"/></g>
<g><path style="opacity:1" fill="#a47158" d="M 129.5,278.5 C 130.488,283.64 130.821,288.974 130.5,294.5C 142.167,294.5 153.833,294.5 165.5,294.5C 165.5,307.833 165.5,321.167 165.5,334.5C 164.505,321.677 164.171,308.677 164.5,295.5C 152.833,295.5 141.167,295.5 129.5,295.5C 129.5,289.833 129.5,284.167 129.5,278.5 Z"/></g>
<g><path style="opacity:1" fill="#023e9f" d="M 126.5,277.5 C 126.833,277.5 127.167,277.5 127.5,277.5C 128.128,283.601 128.795,289.601 129.5,295.5C 141.167,295.5 152.833,295.5 164.5,295.5C 164.171,308.677 164.505,321.677 165.5,334.5C 165.5,334.833 165.5,335.167 165.5,335.5C 177.655,336.495 189.989,336.829 202.5,336.5C 202.666,346.506 202.5,356.506 202,366.5C 201.072,368.335 199.906,368.668 198.5,367.5C 196.659,370.429 194.326,372.929 191.5,375C 187.977,375.656 184.643,375.989 181.5,376C 180.833,376.667 180.167,377.333 179.5,378C 180.711,378.893 180.711,379.726 179.5,380.5C 177.899,381.165 176.399,381.499 175,381.5C 173.991,383.025 173.491,384.692 173.5,386.5C 169.154,383.887 165.654,384.887 163,389.5C 162.667,389.167 162.333,388.833 162,388.5C 161.689,389.742 162.189,390.742 163.5,391.5C 162.109,391.109 161.109,391.942 160.5,394C 158.888,394.72 157.388,394.554 156,393.5C 154.471,394.729 153.304,396.229 152.5,398C 151.234,398.309 150.067,398.809 149,399.5C 148.261,398.426 147.261,397.759 146,397.5C 144.18,398.604 142.68,400.104 141.5,402C 138.02,402.301 134.687,403.135 131.5,404.5C 130.883,406.657 129.216,408.49 126.5,410C 127.956,410.423 128.456,411.256 128,412.5C 126.493,411.465 124.993,411.632 123.5,413C 124.654,413.914 124.487,414.747 123,415.5C 122.586,415.043 122.086,414.709 121.5,414.5C 119.851,415.706 118.351,417.039 117,418.5C 115.156,417.289 114.322,415.956 114.5,414.5C 112.164,416.073 112.164,417.406 114.5,418.5C 113.469,419.7 112.635,421.034 112,422.5C 110.867,420.789 109.367,420.289 107.5,421C 108.614,422.449 109.614,423.783 110.5,425C 108.193,425.779 106.193,425.279 104.5,423.5C 101.084,425.866 98.7504,428.533 97.5,431.5C 94.2016,430.035 91.7016,427.702 90,424.5C 85.0039,428.261 85.8373,430.095 92.5,430C 87.4919,430.869 87.8252,431.536 93.5,432C 92.5,432.333 91.5,432.667 90.5,433C 89.1667,433.667 89.1667,434.333 90.5,435C 88.26,435.977 85.9267,436.477 83.5,436.5C 83.3601,434.876 84.0267,433.71 85.5,433C 84.6667,432.167 83.8333,431.333 83,430.5C 82.554,433.433 81.8873,436.433 81,439.5C 80.5348,438.069 79.7014,436.903 78.5,436C 79.3366,434.989 79.67,433.822 79.5,432.5C 76.8013,433.578 74.1347,433.245 71.5,431.5C 72.1667,431.167 72.8333,430.833 73.5,430.5C 71.1817,429.166 69.515,429.832 68.5,432.5C 67.3044,432.154 67.3044,431.654 68.5,431C 67.5,430.333 66.5,430.333 65.5,431C 66.8333,431.667 66.8333,432.333 65.5,433C 66.8678,434.34 68.2011,435.674 69.5,437C 69.3333,437.5 69.1667,438 69,438.5C 68.2613,437.426 67.2613,436.759 66,436.5C 64.6043,437.394 63.1043,438.061 61.5,438.5C 60.2867,438.253 59.62,437.586 59.5,436.5C 61.6013,433.203 62.9347,429.537 63.5,425.5C 66.124,416.268 69.7907,407.601 74.5,399.5C 77.2541,395.305 78.9208,390.638 79.5,385.5C 80.5375,384.07 81.2041,382.403 81.5,380.5C 81.3433,379.127 81.51,377.793 82,376.5C 85.3724,371.848 87.8724,366.848 89.5,361.5C 92.7549,358.668 94.4216,355.001 94.5,350.5C 94.6596,348.847 95.3263,347.514 96.5,346.5C 99.5357,342.052 101.202,337.052 101.5,331.5C 102.914,326.594 104.914,321.928 107.5,317.5C 109.38,315.245 110.38,312.578 110.5,309.5C 113.697,306.267 115.364,302.267 115.5,297.5C 116.537,296.07 117.204,294.403 117.5,292.5C 118.787,287.927 120.62,283.594 123,279.5C 123.816,278.177 124.983,277.511 126.5,277.5 Z"/></g>
<g><path style="opacity:0.6" fill="#718bbf" d="M 115.5,297.5 C 115.364,302.267 113.697,306.267 110.5,309.5C 111.389,305.163 113.056,301.163 115.5,297.5 Z"/></g>
<g><path style="opacity:0.659" fill="#6c87bc" d="M 110.5,309.5 C 110.38,312.578 109.38,315.245 107.5,317.5C 107.62,314.422 108.62,311.755 110.5,309.5 Z"/></g>
<g><path style="opacity:0.898" fill="#4d6dae" d="M 101.5,331.5 C 101.202,337.052 99.5357,342.052 96.5,346.5C 97.1873,341.105 98.8539,336.105 101.5,331.5 Z"/></g>
<g><path style="opacity:0.996" fill="#ab7256" d="M 165.5,335.5 C 165.5,335.167 165.5,334.833 165.5,334.5C 178.833,334.5 192.167,334.5 205.5,334.5C 205.5,345.167 205.5,355.833 205.5,366.5C 207.5,366.167 209.5,365.833 211.5,365.5C 211.5,365.833 211.5,366.167 211.5,366.5C 210.167,366.833 208.833,367.167 207.5,367.5C 206.178,367.67 205.011,367.337 204,366.5C 203.5,356.172 203.334,345.839 203.5,335.5C 190.833,335.5 178.167,335.5 165.5,335.5 Z"/></g>
<g><path style="opacity:0.918" fill="#4361a4" d="M 94.5,350.5 C 94.4216,355.001 92.7549,358.668 89.5,361.5C 91.0078,357.592 92.6744,353.926 94.5,350.5 Z"/></g>
<g><path style="opacity:0.4" fill="#7e8fb2" d="M 81.5,380.5 C 81.2041,382.403 80.5375,384.07 79.5,385.5C 79.1201,383.302 79.7868,381.635 81.5,380.5 Z"/></g>
<g><path style="opacity:0.816" fill="#5672b0" d="M 79.5,385.5 C 78.9208,390.638 77.2541,395.305 74.5,399.5C 74.5172,397.435 74.8505,395.435 75.5,393.5C 76.6414,390.746 77.9748,388.079 79.5,385.5 Z"/></g>
<g><path style="opacity:0.085" fill="#dfd8d8" d="M 211.5,366.5 C 210.375,367.652 210.375,368.652 211.5,369.5C 205.072,374.225 198.405,378.725 191.5,383C 143.098,410.372 95.0983,438.538 47.5,467.5C 45.8333,467.167 44.8333,466.167 44.5,464.5C 54.3257,440.544 64.3257,416.877 74.5,393.5C 74.8333,393.5 75.1667,393.5 75.5,393.5C 74.8505,395.435 74.5172,397.435 74.5,399.5C 69.7907,407.601 66.124,416.268 63.5,425.5C 61.0431,428.751 59.3764,432.418 58.5,436.5C 56.8815,440.069 55.5481,443.736 54.5,447.5C 52.7549,449.033 51.7549,451.033 51.5,453.5C 50.5592,455.05 49.8925,456.716 49.5,458.5C 48.6087,460.291 47.6087,462.124 46.5,464C 48.3524,464.773 49.6857,464.273 50.5,462.5C 71.5586,449.457 92.892,436.79 114.5,424.5C 117.1,423.532 119.434,422.199 121.5,420.5C 124.721,417.722 128.388,415.722 132.5,414.5C 136.389,412.942 139.722,410.609 142.5,407.5C 163.593,394.664 184.926,381.998 206.5,369.5C 207.298,369.043 207.631,368.376 207.5,367.5C 208.833,367.167 210.167,366.833 211.5,366.5 Z"/></g>
<g><path style="opacity:0.761" fill="#97a5c6" d="M 142.5,407.5 C 139.722,410.609 136.389,412.942 132.5,414.5C 135.233,411.454 138.566,409.12 142.5,407.5 Z"/></g>
<g><path style="opacity:0.765" fill="#9da9c6" d="M 121.5,420.5 C 119.434,422.199 117.1,423.532 114.5,424.5C 116.121,422.058 118.454,420.725 121.5,420.5 Z"/></g>
<g><path style="opacity:0.998" fill="#0c42a2" d="M 165.5,335.5 C 178.167,335.5 190.833,335.5 203.5,335.5C 203.334,345.839 203.5,356.172 204,366.5C 205.011,367.337 206.178,367.67 207.5,367.5C 207.631,368.376 207.298,369.043 206.5,369.5C 184.926,381.998 163.593,394.664 142.5,407.5C 138.566,409.12 135.233,411.454 132.5,414.5C 128.388,415.722 124.721,417.722 121.5,420.5C 118.454,420.725 116.121,422.058 114.5,424.5C 92.892,436.79 71.5586,449.457 50.5,462.5C 49.5655,461.432 49.2322,460.099 49.5,458.5C 49.8925,456.716 50.5592,455.05 51.5,453.5C 53.2451,451.967 54.2451,449.967 54.5,447.5C 55.5481,443.736 56.8815,440.069 58.5,436.5C 58.8333,436.5 59.1667,436.5 59.5,436.5C 59.62,437.586 60.2867,438.253 61.5,438.5C 63.1043,438.061 64.6043,437.394 66,436.5C 67.2613,436.759 68.2613,437.426 69,438.5C 69.1667,438 69.3333,437.5 69.5,437C 68.2011,435.674 66.8678,434.34 65.5,433C 66.8333,432.333 66.8333,431.667 65.5,431C 66.5,430.333 67.5,430.333 68.5,431C 67.3044,431.654 67.3044,432.154 68.5,432.5C 69.515,429.832 71.1817,429.166 73.5,430.5C 72.8333,430.833 72.1667,431.167 71.5,431.5C 74.1347,433.245 76.8013,433.578 79.5,432.5C 79.67,433.822 79.3366,434.989 78.5,436C 79.7014,436.903 80.5348,438.069 81,439.5C 81.8873,436.433 82.554,433.433 83,430.5C 83.8333,431.333 84.6667,432.167 85.5,433C 84.0267,433.71 83.3601,434.876 83.5,436.5C 85.9267,436.477 88.26,435.977 90.5,435C 89.1667,434.333 89.1667,433.667 90.5,433C 91.5,432.667 92.5,432.333 93.5,432C 87.8252,431.536 87.4919,430.869 92.5,430C 85.8373,430.095 85.0039,428.261 90,424.5C 91.7016,427.702 94.2016,430.035 97.5,431.5C 98.7504,428.533 101.084,425.866 104.5,423.5C 106.193,425.279 108.193,425.779 110.5,425C 109.614,423.783 108.614,422.449 107.5,421C 109.367,420.289 110.867,420.789 112,422.5C 112.635,421.034 113.469,419.7 114.5,418.5C 112.164,417.406 112.164,416.073 114.5,414.5C 114.322,415.956 115.156,417.289 117,418.5C 118.351,417.039 119.851,415.706 121.5,414.5C 122.086,414.709 122.586,415.043 123,415.5C 124.487,414.747 124.654,413.914 123.5,413C 124.993,411.632 126.493,411.465 128,412.5C 128.456,411.256 127.956,410.423 126.5,410C 129.216,408.49 130.883,406.657 131.5,404.5C 134.687,403.135 138.02,402.301 141.5,402C 142.68,400.104 144.18,398.604 146,397.5C 147.261,397.759 148.261,398.426 149,399.5C 150.067,398.809 151.234,398.309 152.5,398C 153.304,396.229 154.471,394.729 156,393.5C 157.388,394.554 158.888,394.72 160.5,394C 161.109,391.942 162.109,391.109 163.5,391.5C 162.189,390.742 161.689,389.742 162,388.5C 162.333,388.833 162.667,389.167 163,389.5C 165.654,384.887 169.154,383.887 173.5,386.5C 173.491,384.692 173.991,383.025 175,381.5C 176.399,381.499 177.899,381.165 179.5,380.5C 180.711,379.726 180.711,378.893 179.5,378C 180.167,377.333 180.833,376.667 181.5,376C 184.643,375.989 187.977,375.656 191.5,375C 194.326,372.929 196.659,370.429 198.5,367.5C 199.906,368.668 201.072,368.335 202,366.5C 202.5,356.506 202.666,346.506 202.5,336.5C 189.989,336.829 177.655,336.495 165.5,335.5 Z"/></g>
<g><path style="opacity:0.804" fill="#5b76b2" d="M 63.5,425.5 C 62.9347,429.537 61.6013,433.203 59.5,436.5C 59.1667,436.5 58.8333,436.5 58.5,436.5C 59.3764,432.418 61.0431,428.751 63.5,425.5 Z"/></g>
<g><path style="opacity:0.518" fill="#798fbe" d="M 54.5,447.5 C 54.2451,449.967 53.2451,451.967 51.5,453.5C 51.7549,451.033 52.7549,449.033 54.5,447.5 Z"/></g>
<g><path style="opacity:0.647" fill="#6d83b4" d="M 49.5,458.5 C 49.2322,460.099 49.5655,461.432 50.5,462.5C 49.6857,464.273 48.3524,464.773 46.5,464C 47.6087,462.124 48.6087,460.291 49.5,458.5 Z"/></g>
</svg>
